<?xml version="1.0" standalone="no"?>
<!DOCTYPE svg PUBLIC "-//W3C//DTD SVG 20010904//EN"
 "http://www.w3.org/TR/2001/REC-SVG-20010904/DTD/svg10.dtd">
<svg version="1.0" xmlns="http://www.w3.org/2000/svg"
 width="500.000000pt" height="500.000000pt" viewBox="0 0 500.000000 500.000000"
 preserveAspectRatio="xMidYMid meet">

<g transform="translate(0.000000,500.000000) scale(0.100000,-0.100000)"
fill="#000000" stroke="none">
<path d="M2325 4593 c-443 -80 -836 -434 -1071 -965 -137 -307 -211 -647 -221
-1013 -6 -225 5 -397 41 -621 13 -82 27 -178 31 -214 13 -125 57 -326 100
-455 122 -370 318 -654 564 -817 l75 -49 45 43 c25 24 48 47 52 51 3 5 30 -3
60 -18 29 -15 82 -38 117 -52 l64 -24 44 37 c64 52 167 160 219 229 25 33 72
114 105 180 156 313 177 684 69 1218 -17 83 -75 329 -129 547 -145 583 -167
708 -177 1025 -10 339 27 578 131 848 l26 67 -33 -1 c-17 -1 -68 -8 -112 -16z
m-116 -268 c-43 -182 -54 -290 -53 -550 0 -372 21 -504 180 -1140 141 -565
179 -767 191 -1025 17 -378 -81 -668 -302 -898 l-71 -74 -52 22 c-29 12 -52
24 -52 26 0 3 12 23 26 46 60 95 113 255 134 408 16 110 13 411 -5 569 -20
171 -35 263 -91 576 -106 586 -119 714 -111 1050 6 240 19 354 62 534 14 57
24 106 22 108 -9 9 -193 -93 -264 -146 -98 -72 -238 -220 -325 -342 -80 -111
-184 -310 -239 -452 -21 -56 -39 -96 -39 -90 0 7 11 67 25 133 117 550 401
1010 754 1220 63 37 222 112 227 107 1 -1 -6 -38 -17 -82z"/>
<path d="M2513 4548 c-42 -128 -48 -177 -48 -388 1 -479 117 -1016 389 -1783
109 -308 156 -554 156 -817 0 -178 -17 -301 -61 -443 -78 -253 -177 -402 -405
-608 -77 -70 -120 -115 -111 -117 30 -6 313 50 399 78 480 160 872 650 1042
1301 123 472 125 986 6 1460 -114 450 -352 857 -638 1091 -196 161 -420 259
-643 282 l-66 7 -20 -63z m237 -135 c89 -24 186 -69 273 -126 389 -256 662
-748 759 -1368 19 -123 22 -183 22 -414 0 -202 -4 -297 -17 -378 -78 -503
-260 -914 -530 -1193 -104 -108 -191 -179 -290 -234 l-59 -33 31 49 c16 27 53
66 80 88 88 66 229 225 313 350 193 288 320 632 379 1026 26 173 32 549 10
715 -33 262 -114 550 -210 747 -106 217 -271 428 -430 549 -64 49 -219 131
-272 144 -26 6 -27 5 -37 -67 -33 -219 -23 -508 29 -873 40 -286 122 -683 183
-890 4 -11 0 -6 -8 10 -25 49 -131 379 -175 539 -83 303 -149 641 -172 872
-11 116 -7 431 7 486 7 31 6 31 114 1z"/>
</g>
</svg>
